<?xml version="1.0" encoding="utf-8"?>
<!-- Generator: Adobe Illustrator 19.0.0, SVG Export Plug-In . SVG Version: 6.00 Build 0)  -->
<svg version="1.1" id="Layer_2" xmlns="http://www.w3.org/2000/svg" xmlns:xlink="http://www.w3.org/1999/xlink" x="0px" y="0px"
	 viewBox="0 0 612 204" style="enable-background:new 0 0 612 204;" xml:space="preserve">
<style type="text/css">
	.st0{fill:#231F20;}
	.st1{fill:#30AECF;}
</style>
<path class="st0" d="M15.9,155.4c-0.7,2-1.3,4.7,0,6.5c1.9,2.6,6.8,1.5,15,0.5c4.3-0.5,10.7-1.2,18.5-1.5c4.6-4.1,9.2-8.2,13.7-12.2
	c0.2-0.2,0.3-0.4,0.4-0.6l27.2-72.3c0-4.3,2.8-7,4.7-6.8c1.5,0.2,3.1,2.3,3.5,5c3.8,28.2,7.6,56.4,11.4,84.6
	c0.3,0.5,0.7,0.9,1.1,1.3c7.4,6.9,25.4-1.9,28.4-3.4c26.8-28.7,53.7-57.4,80.5-86.1c0.3-0.3,0.7-0.4,1.1-0.4h3.3
	c1.2,0,2.1,1.3,1.6,2.4c-10.3,25.5-20.7,51.1-31,76.6c-2,3.3-1.6,7.6,1,10.5c2.6,2.9,6.9,3.7,10.5,2c24.1,0,48.2,0,72.3,0
	c0.1,0,0.2,0,0.3,0c11.9-1,23.9-2,35.8-3c5.7-2,11.5-4.1,17.5-6.5c5.4-2.1,10.5-4.3,15.5-6.5c7.3-4.1,13.2-8,17.5-11
	c8.8-6.2,16.4-11.5,24-20.5c4.8-5.7,8.3-11.2,11-16c3.3-9,6.7-18,10-27c1.4-5.7,3.2-16.4,0-29c-1.8-7-4.6-12.6-7-16.5
	c-6.2-4.1-12.3-8.3-18.5-12.4c-2.8-0.8-6.8-1.7-11.5-2.6c-4.8-0.8-9.6-1.4-21-2c-14.4-0.7-21.7-1.1-28.5,0c-9.9,1.6-13.9,4-16,5.5
	c-5.5,3.9-8.2,8.9-9,10.5c-2.2,4.4-2.8,8.5-3,11c-0.1,0.2-1.7,2.8-0.5,5.5c0.8,2,2.6,2.8,3,3c7,0,14,0,21,0c3.6,0.2,7.2,0.4,11,0.5
	c5.2,0.1,10.2,0.1,15,0c4.3,1.5,8.7,3,13,4.5c1.3,1.1,8.9,7.6,9,18c0.1,4.7-1.4,8.4-2.5,10.5c-1.8,6-3.7,12-5.5,18
	c-3.1,6.9-7.8,15.1-15,23c-1.8,2-3.7,3.8-5.5,5.5c-4.7,4-9.3,8-14,12c-5.1,2.2-10.5,4.4-16,6.5c-4.6,1.8-9.1,3.4-13.5,5
	c-15.4,0.8-30.8,1.6-46.2,2.3c-0.2,0-0.5,0-0.7,0c-1.4,0-2.8,0-4,0.2c-1.3-1-2.7-2-4-3c-0.5-1.5-1.1-3.9-1-7
	c0.1-2.9,0.9-5.1,1.5-6.5c15.7-40.3,31.3-80.7,47-121c0.6-1.7,0.2-2.7,0-3c-1-1.9-4.3-2.9-8-1.5c-5.2,0.2-10.3,0.3-15.5,0.5
	c-2.1,1-4.3,2-6.5,3c-3.5,1.6-6.8,3.3-10,5c-19.6,20.5-39.2,41.5-59,63c-15.1,16.4-29.8,32.7-44.3,48.9l-2.8-0.3
	c-0.8-0.1-1.5-0.7-1.6-1.5L125.9,16c0-0.2-0.1-0.3-0.1-0.5c-0.4-1.4-0.9-2.8-1.4-4c-1-1-2-2-3-3c-1.6-0.1-4-0.3-7-0.5
	c-13.9-0.8-11.8,0.4-28,0.5c-2.5,0-5,0-7.5,1.5c-4.2,2.5-5.3,6.7-5.5,7.5c-17,43.3-34,86.7-51,130C20.2,150.1,18,152.8,15.9,155.4z"
	/>
<path class="st1" d="M443.9,21.9c-5.3,4.3-11.1,10.8-24,43.5c-5.7,14.4-6.6,18.4-16.5,46c-7.8,21.8-11.7,32.7-12.6,34.4
	c0,0-7.9,17.3-19.4,50.6c-0.6,1.8,3.7,1.3,8,1.5c17.7,0.8,31.2-11.5,34-14c7.2-6.6,8.1-15.9,21.4-49c8.7-21.7,16.6-43.8,26.6-74
	c0.7-2.2,5.7-8.8,17.5-14.5c3.7-1.8,29.8-13.9,56.5-2c6.4,2.9,10.9,5,14.5,10c10.1,14,1.7,34.7-1.5,42.5c-2.2,5.4-11,26.4-34,39.5
	c-14.7,8.5-27.3,11.4-36.5,12.5c0,0-6.5,0.7-30.5,1c0,0,0,0-0.1,0.1c-6.4,7.2-5.9,9.9-5.9,9.9c1.1,5.1,26,2.5,26,2.5
	c28.5-3,45.4-4.7,63-13.5c44.4-22,78.7-80.9,62.5-112.5c-5.2-10.2-16.6-19.4-28-24c-6.9-2.8-10.8-2.7-32-3.5c-44.6-1.7-50.7-3-64,1
	C461.5,12.2,452.7,14.9,443.9,21.9z"/>
</svg>
